<?xml version="1.0" encoding="UTF-8" standalone="no"?>
<!DOCTYPE svg PUBLIC "-//W3C//DTD SVG 1.1//EN" "http://www.w3.org/Graphics/SVG/1.1/DTD/svg11.dtd">
<svg width="100%" height="100%" viewBox="0 0 523 58" version="1.1" xmlns="http://www.w3.org/2000/svg" xmlns:xlink="http://www.w3.org/1999/xlink" xml:space="preserve" xmlns:serif="http://www.serif.com/" style="fill-rule:evenodd;clip-rule:evenodd;stroke-linejoin:round;stroke-miterlimit:2;">
    <g id="DATORY" transform="matrix(1,0,0,1,-323.82,-98.62)">
        <path d="M511.67,103.95L537.81,103.95L537.81,156.33L547.89,156.33L547.89,103.95L574.02,103.95L574.02,98.73L511.67,98.73L511.67,103.95Z" style="fill:rgb(234,0,28);fill-rule:nonzero;"/>
        <path d="M658.45,104.87C652.58,100.72 644.57,98.62 634.65,98.62C624.73,98.62 616.71,100.72 610.84,104.87C607.68,107.1 603.47,111.24 603.47,121.31L603.47,133.74C603.47,139.18 604.66,143.41 607.09,146.69C609.566,150.053 613.026,152.566 616.99,153.88C628.517,157.279 640.783,157.279 652.31,153.88C656.27,152.563 659.726,150.05 662.2,146.69C664.64,143.41 665.82,139.24 665.82,133.95L665.82,121.1C665.82,113.58 663.48,108.42 658.45,104.87ZM654.66,135.59C654.779,140.889 652.38,145.942 648.2,149.2C644.62,151.97 640.06,153.37 634.65,153.37C629.24,153.37 624.74,152.01 621.17,149.3C616.937,146.082 614.501,141.016 614.63,135.7L614.63,119.36C614.501,114.041 616.937,108.973 621.17,105.75C624.74,103.05 629.27,101.68 634.65,101.68C639.507,101.51 644.282,102.984 648.2,105.86C652.382,109.112 654.782,114.164 654.66,119.46L654.66,135.59Z" style="fill:rgb(234,0,28);fill-rule:nonzero;"/>
        <path d="M751.52,129.36C754.71,127.5 758.38,124.29 758.38,115.86C758.38,110.53 756.69,106.68 753.06,103.73C748.97,100.41 743,98.73 735.3,98.73L699.37,98.73L699.37,156.33L710.53,156.33L710.53,132.24L734.46,132.24L745.16,156.33L756.09,156.33L744,133.72L751.52,129.36ZM733.03,130.26L710.53,130.26L710.53,100.81L733,100.81C737.412,100.7 741.595,102.823 744.11,106.45C745.993,109.183 746.992,112.431 746.97,115.75C747.024,119.269 745.837,122.697 743.62,125.43C740.997,128.565 737.086,130.343 733,130.26L733.03,130.26Z" style="fill:rgb(234,0,28);fill-rule:nonzero;"/>
        <path d="M818,131.5L799.29,98.73L790.44,98.73L812.77,135.83L812.77,156.33L823.61,156.33L823.61,135.82L846.02,98.73L837.39,98.73L818,131.5Z" style="fill:rgb(234,0,28);fill-rule:nonzero;"/>
        <path d="M457.4,98.73L472.18,142.03L434.68,142.03L449.46,98.73L441.21,98.73L421.56,156.33L429.9,156.33L433.91,145.09L472.95,145.09L476.96,156.33L485.3,156.33L465.65,98.73L457.4,98.73Z" style="fill:rgb(234,0,28);fill-rule:nonzero;"/>
        <path d="M361.11,98.73L323.82,98.73L323.82,156.33L361.11,156.33C376.904,156.33 389.9,143.334 389.9,127.54C389.9,111.746 376.904,98.75 361.11,98.75L361.11,98.73ZM357.24,152.65L333.9,152.65L333.9,102.41L357.24,102.41C370.87,102.41 381.91,112.82 381.91,127.52C381.91,142.22 370.87,152.65 357.24,152.65Z" style="fill:rgb(234,0,28);fill-rule:nonzero;"/>
    </g>
</svg>
