<svg viewBox="0 0 523 58" xmlns="http://www.w3.org/2000/svg" xml:space="preserve" fill-rule="evenodd" clip-rule="evenodd" stroke-linejoin="round" stroke-miterlimit="2"><path d="M187.85 5.33h26.14v52.38h10.08V5.33h26.13V.11h-62.35zm146.78.92C328.76 2.1 320.75 0 310.83 0s-17.94 2.1-23.81 6.25c-3.16 2.23-7.37 6.37-7.37 16.44v12.43c0 5.44 1.19 9.67 3.62 12.95a20 20 0 0 0 9.9 7.19 62.4 62.4 0 0 0 35.32 0 20 20 0 0 0 9.89-7.19c2.44-3.28 3.62-7.45 3.62-12.74V22.48c0-7.52-2.34-12.68-7.37-16.23m-3.79 30.72a16.8 16.8 0 0 1-6.46 13.61c-3.58 2.77-8.14 4.17-13.55 4.17q-8.12 0-13.48-4.07a16.6 16.6 0 0 1-6.54-13.6V20.74a16.6 16.6 0 0 1 6.54-13.61c3.57-2.7 8.1-4.07 13.48-4.07a21.6 21.6 0 0 1 13.55 4.18 16.8 16.8 0 0 1 6.46 13.6zm96.86-6.23c3.19-1.86 6.86-5.07 6.86-13.5 0-5.33-1.69-9.18-5.32-12.13-4.09-3.32-10.06-5-17.76-5h-35.93v57.6h11.16V33.62h23.93l10.7 24.09h10.93L420.18 35.1zm-18.49.9h-22.5V2.19h22.47c4.41-.11 8.6 2.01 11.11 5.64a16 16 0 0 1 2.86 9.3 15 15 0 0 1-3.35 9.68 13.5 13.5 0 0 1-10.62 4.83zm84.97 1.24L475.47.11h-8.85l22.33 37.1v20.5h10.84V37.2L522.2.11h-8.63zM133.58.11l14.78 43.3h-37.5L125.64.11h-8.25l-19.65 57.6h8.34l4.01-11.24h39.04l4.01 11.24h8.34L141.83.11zm-96.29 0H0v57.6h37.29c15.8 0 28.79-13 28.79-28.79 0-15.8-13-28.79-28.79-28.79zm-3.87 53.92H10.08V3.79h23.34c13.63 0 24.67 10.41 24.67 25.11S47.05 54.03 33.42 54.03" fill="#f0d5a7" fill-rule="nonzero"/></svg>
